G04 ===== Begin FILE IDENTIFICATION =====*
G04 File Format:  Gerber RS274X*
G04 ===== End FILE IDENTIFICATION =====*
%FSLAX66Y66*%
%MOIN*%
%SFA1.0000B1.0000*%
%OFA0.0B0.0*%
%ADD14R,0.125984X0.031496*%
%ADD15R,0.027559X0.027559*%
%ADD16R,0.125984X0.027559*%
%ADD17R,0.371457X0.071732*%
%ADD18R,0.071732X0.675000*%
%ADD19R,0.062992X0.031496*%
%ADD20R,0.062992X0.062992*%
%ADD21C,0.075591*%
%ADD22C,0.031496*%
%ADD23R,0.025591X0.035433*%
%ADD24C,0.033071*%
%ADD25C,0.015748*%
%ADD26R,0.031496X0.031496*%
%ADD27R,0.027559X0.080709*%
%ADD28R,0.071732X0.118110*%
%ADD29R,0.098425X0.098425*%
%ADD30R,0.031496X0.062992*%
%ADD31R,0.073260X0.113780*%
%ADD32R,0.196878X0.113780*%
%ADD33C,0.136535*%
%ADD34R,0.393701X0.113780*%
%ADD35R,0.113780X0.381965*%
%ADD36R,0.047244X0.675000*%
%ADD37R,0.047244X0.118110*%
%ADD38C,0.037795*%
%ADD39R,0.371457X0.047244*%
%ADD40R,0.315965X0.113780*%
%ADD41R,0.146472X0.113780*%
%ADD42R,0.537402X0.113780*%
%ADD43R,0.113780X0.393701*%
%LNcond*%
%IPPOS*%
%LPD*%
G75*
D14*
X1848961Y2126890D03*
G36*
G01X1974945Y2111142D02*
G01Y2142638D01*
G01X1911953D01*
G01Y2111142D01*
G01X1974945D01*
G37*
D15*
X1583213Y2300118D03*
G36*
G01X1785969Y2111142D02*
G01Y2142638D01*
G01X1722976D01*
G01Y2111142D01*
G01X1785969D01*
G37*
D16*
X1659984Y2300118D03*
D14*
Y2126890D03*
G36*
G01X1596992Y2111142D02*
G01Y2142638D01*
G01X1569433D01*
G01Y2111142D01*
G01X1596992D01*
G37*
G36*
G01X1911953Y2268622D02*
G01Y2331614D01*
G01X1785969D01*
G01Y2268622D01*
G01X1911953D01*
G37*
D14*
X1506441Y2126890D03*
G36*
G01X1443449Y2111142D02*
G01Y2142638D01*
G01X1371717D01*
G01Y2111142D01*
G01X1443449D01*
G37*
D17*
X1103744Y2378858D03*
D18*
X1407583Y1773642D03*
D19*
X2006441Y2126890D03*
D20*
X1943449Y2300118D03*
D21*
X1848961Y2331614D03*
D22*
D03*
D23*
X1315142Y2126890D03*
X1368291D03*
D24*
X1311717D03*
D25*
D03*
D26*
X2053685D03*
D27*
X1583213Y2245984D03*
D28*
X1407583Y2201693D03*
G36*
G01X1371717Y2260748D02*
G01Y2260744D01*
G01X1443449D01*
G01Y2260748D01*
G03X1289472Y2414724I-153976J0D01*
G01X1289469D01*
G01Y2342992D01*
G01X1289472D01*
G02X1371717Y2260748I0J-82244D01*
G01X1371717Y2260748D01*
G37*
G36*
G01X1722976Y2313898D02*
G01Y2268622D01*
G01X1785969D01*
G01Y2331614D01*
G01X1754472D01*
G01Y2313898D01*
G01X1722976D01*
G37*
D29*
X2053685Y1998937D03*
D30*
Y2079646D03*
D31*
X346154Y2016728D03*
G36*
G01X195744Y2073618D02*
G01Y1959839D01*
G01X309524D01*
G01Y2073618D01*
G01X195744D01*
G37*
D32*
X508553Y1420394D03*
D33*
X382783Y2016728D03*
D22*
D03*
D34*
X-1106D03*
D35*
X252634Y1768856D03*
G36*
G01X309524Y1577874D02*
G01Y1577878D01*
G01X195744D01*
G01Y1577874D01*
G03X410114Y1363504I214370J0D01*
G01X410118D01*
G01Y1477283D01*
G01X410114D01*
G02X309524Y1577874I0J100591D01*
G01X309524Y1577874D01*
G37*
G36*
G01X606992Y1477283D02*
G01Y1363504D01*
G01X764472Y1404646D01*
G01Y1436142D01*
G01X606992Y1477283D01*
G37*
G36*
G01X827465Y1436142D02*
G01Y1404646D01*
G01X929827D01*
G01Y1436142D01*
G01X827465D01*
G37*
G36*
G01X977071Y1467638D02*
G01X977075D01*
G01Y1499134D01*
G01X977071D01*
G03X929827Y1451890I0J-47244D01*
G01Y1451886D01*
G01X961323D01*
G01Y1451890D01*
G02X977071Y1467638I15748J0D01*
G01X977071Y1467638D01*
G37*
G36*
G01X961323Y1451890D02*
G01X929827D01*
G01Y1388898D01*
G01X961323D01*
G01Y1451890D01*
G37*
G36*
G01X961323Y1388898D02*
G01Y1388902D01*
G01X929827D01*
G01Y1388898D01*
G03X977071Y1341654I47244J0D01*
G01X977075D01*
G01Y1373150D01*
G01X977071D01*
G02X961323Y1388898I0J15748D01*
G01X961323Y1388898D01*
G37*
G36*
G01X1443449Y1404646D02*
G01Y1436142D01*
G01X1371717D01*
G01Y1404646D01*
G01X1443449D01*
G37*
G36*
G01X1052819Y1388898D02*
G01X1084315D01*
G01Y1451890D01*
G01X1052819D01*
G01Y1388898D01*
G37*
D23*
X980496Y1483386D03*
X1033646D03*
D19*
X1115811Y1420394D03*
X1340220D03*
G36*
G01X1037071Y1373150D02*
G01X1037067D01*
G01Y1341654D01*
G01X1037071D01*
G03X1084315Y1388898I0J47244D01*
G01Y1388902D01*
G01X1052819D01*
G01Y1388898D01*
G02X1037071Y1373150I-15748J0D01*
G01X1037071Y1373150D01*
G37*
G36*
G01X1052819Y1451890D02*
G01Y1451886D01*
G01X1084315D01*
G01Y1451890D01*
G03X1037071Y1499134I-47244J0D01*
G01X1037067D01*
G01Y1467638D01*
G01X1037071D01*
G02X1052819Y1451890I0J-15748D01*
G01X1052819Y1451890D01*
G37*
D36*
X878646Y1067146D03*
G36*
G01X855024Y729646D02*
G01Y698150D01*
G01X902268D01*
G01Y729646D01*
G01X855024D01*
G37*
D37*
X878646Y639094D03*
D14*
X792031Y713898D03*
G36*
G01X701480Y729646D02*
G01Y698150D01*
G01X729039D01*
G01Y729646D01*
G01X701480D01*
G37*
D14*
X638488Y713898D03*
G36*
G01X512504Y729646D02*
G01Y698150D01*
G01X575496D01*
G01Y729646D01*
G01X512504D01*
G37*
D14*
X449512Y713898D03*
G36*
G01X323528Y729646D02*
G01Y698150D01*
G01X386520D01*
G01Y729646D01*
G01X323528D01*
G37*
G36*
G01X386520Y572165D02*
G01Y509173D01*
G01X512504D01*
G01Y572165D01*
G01X386520D01*
G37*
D20*
X355024Y540669D03*
G36*
G01X575496Y526890D02*
G01Y572165D01*
G01X512504D01*
G01Y509173D01*
G01X544000D01*
G01Y526890D01*
G01X575496D01*
G37*
D14*
X260535Y713898D03*
D16*
X638488Y540669D03*
D21*
X449512Y509173D03*
D22*
D03*
D23*
X905693Y713898D03*
X958843D03*
D38*
X962268D03*
D22*
D03*
D15*
X715260Y540669D03*
G36*
G01X902268Y580039D02*
G01Y580043D01*
G01X855024D01*
G01Y580039D01*
G03X996756Y438307I141732J0D01*
G01X996760D01*
G01Y485551D01*
G01X996756D01*
G02X902268Y580039I0J94488D01*
G01X902268Y580039D01*
G37*
D39*
X1182484Y461929D03*
D27*
X715260Y594803D03*
D29*
X148331Y713898D03*
D40*
X1821904Y1420394D03*
G36*
G01X2119996Y829693D02*
G01Y943472D01*
G01X2006217D01*
G01Y829693D01*
G01X2119996D01*
G37*
D33*
X1859744Y886583D03*
D22*
D03*
D41*
X1932980D03*
D42*
X2388697D03*
G36*
G01X1663921Y1363504D02*
G01Y1477283D01*
G01X1506441Y1436142D01*
G01Y1404646D01*
G01X1663921Y1363504D01*
G37*
D43*
X2063106Y1140323D03*
G36*
G01X2006217Y1337173D02*
G01Y1337169D01*
G01X2119996D01*
G01Y1337173D01*
G03X1979886Y1477283I-140110J0D01*
G01X1979882D01*
G01Y1363504D01*
G01X1979886D01*
G02X2006217Y1337173I0J-26331D01*
G01X2006217Y1337173D01*
G37*
M02*

