;           Gerber:: Drill Report             
;           =====================             
;    Unit                   : inch
;    Format                 : 6.6, Leading Zeros Suppressed
;    Co-ordinate data Mode  : Absolute Data mode
;+----------------------------------------+
;|  D R I L L   T O O L S   T A B L E     |
;+----------------------------------------+
;|    Drill    |    Tool    |    Drill    |
;|    Tool     |    Size    |    Count    |
;+----------------------------------------+
;|          T01|    0.031496|            5|
;|          T02|    0.015748|            1|
;|          T03|    0.078740|           13|
;|          T04|    0.098425|           14|
;|          T05|    0.157480|            4|
;+----------------------------------------+

M48
INCH,LZ,000000.000000
T01C0.031496
T02C0.015748
T03C0.078740
T04C0.098425
T05C0.157480
%
M72
G90
T01
X000001848961Y000002331614
X000000382783Y000002016728
X000000449512Y000000509173
X000000981953Y000000713898
X000001859744Y000000886583
T02
X000001311717Y00000212689
T03
X000002352362Y000000482283
Y000001230315
Y000001604331
X000000482283Y000002352362
X000000108268Y000000856299
Y000000482283
X000000856299Y000000108268
X000000108268Y000001230315
X000001604331Y000000108268
X000000108268Y000001604331
X000001230315Y000000108268
X000001978346
X000000482283
T04
X000001604331Y000001978346
Y000000482283
X000001978346
X000001230315Y000000856299
X000001604331
X000000482283
X000001604331Y000001604331
Y000001230315
X000001230315Y000001604331
Y000001230315
X000000482283Y000001604331
X000000856299
X000001230315Y000001978346
X000000482283Y000001230315
T05
X000000246063Y000002214567
X000002214567
X000000246063Y000000246063
X000002214567

M30
